<svg width="18" height="19" viewBox="0 0 18 19" fill="none" xmlns="http://www.w3.org/2000/svg">
<path fill-rule="evenodd" clip-rule="evenodd" d="M16.0002 8C16.0002 11.3137 13.3139 14 10.0002 14C6.68648 14 4.00019 11.3137 4.00019 8C4.00019 4.68629 6.68648 2 10.0002 2C13.3139 2 16.0002 4.68629 16.0002 8ZM18.0002 8C18.0002 12.4183 14.4185 16 10.0002 16C8.15297 16 6.45197 15.3739 5.09782 14.3224L1.41617 18.0041L0.00195312 16.5898L3.68288 12.9089C2.62828 11.5537 2.00019 9.8502 2.00019 8C2.00019 3.58172 5.58191 0 10.0002 0C14.4185 0 18.0002 3.58172 18.0002 8Z" fill="white"/>
</svg>
