<svg width="27" height="28" viewBox="0 0 27 28" fill="none" xmlns="http://www.w3.org/2000/svg">
<path fill-rule="evenodd" clip-rule="evenodd" d="M24.0006 12C24.0006 16.9706 19.9712 21 15.0006 21C10.0301 21 6.00063 16.9706 6.00063 12C6.00063 7.02944 10.0301 3 15.0006 3C19.9712 3 24.0006 7.02944 24.0006 12ZM27.0006 12C27.0006 18.6274 21.628 24 15.0006 24C12.2287 24 9.6762 23.0601 7.64456 21.4816L2.12132 27.0049L0 24.8836L5.52271 19.3609C3.94199 17.3284 3.00063 14.7742 3.00063 12C3.00063 5.37258 8.37322 0 15.0006 0C21.628 0 27.0006 5.37258 27.0006 12Z" fill="white"/>
</svg>
