<svg width="50" height="50" viewBox="0 0 50 50" fill="none" xmlns="http://www.w3.org/2000/svg">
<path d="M25 0C11.25 0 0 11.2701 0 25.1506C0 37.7008 9.14999 48.1175 21.1 50V32.4297H14.75V25.1506H21.1V19.6034C21.1 13.3032 24.825 9.83936 30.55 9.83936C33.275 9.83936 36.125 10.3163 36.125 10.3163V16.5161H32.975C29.875 16.5161 28.9 18.4488 28.9 20.4317V25.1506H35.85L34.725 32.4297H28.9V50C34.7911 49.0659 40.1555 46.048 44.0248 41.4911C47.8941 36.9342 50.0133 31.1387 49.9999 25.1506C49.9999 11.2701 38.75 0 25 0Z" fill="#CACACA"/>
</svg>
