<svg width="50" height="50" viewBox="0 0 50 50" fill="none" xmlns="http://www.w3.org/2000/svg">
<path d="M20.2148 25C20.2148 27.6428 22.3572 29.7852 25 29.7852C27.6428 29.7852 29.7852 27.6428 29.7852 25C29.7852 22.3572 27.6428 20.2148 25 20.2148C22.3572 20.2148 20.2148 22.3572 20.2148 25Z" fill="#CACACA"/>
<path d="M13.8091 16.5336C14.0392 15.9103 14.4061 15.3461 14.883 14.883C15.3461 14.4061 15.9099 14.0392 16.5336 13.8091C17.0394 13.6127 17.7993 13.3788 19.1989 13.3151C20.713 13.2461 21.1669 13.2312 24.9999 13.2312C28.8333 13.2312 29.2873 13.2457 30.8009 13.3147C32.2006 13.3788 32.9608 13.6127 33.4663 13.8091C34.09 14.0392 34.6542 14.4061 35.1169 14.883C35.5937 15.3461 35.9607 15.9099 36.1911 16.5336C36.3876 17.0394 36.6214 17.7997 36.6851 19.1993C36.7542 20.713 36.769 21.1669 36.769 25.0003C36.769 28.8333 36.7542 29.2873 36.6851 30.8013C36.6214 32.2009 36.3876 32.9608 36.1911 33.4666C35.9607 34.0904 35.5941 34.6542 35.1173 35.1173C34.6542 35.5941 34.0904 35.9611 33.4667 36.1911C32.9608 36.3879 32.2006 36.6218 30.8009 36.6855C29.2873 36.7545 28.8337 36.769 25.0003 36.769C21.1665 36.769 20.7126 36.7545 19.1993 36.6855C17.7997 36.6218 17.0394 36.3879 16.5336 36.1911C15.2816 35.7082 14.2921 34.7186 13.8091 33.4666C13.6127 32.9608 13.3788 32.2009 13.3148 30.8013C13.2457 29.2873 13.2312 28.8333 13.2312 25.0003C13.2312 21.1669 13.2457 20.713 13.3148 19.1993C13.3785 17.7997 13.6123 17.0394 13.8091 16.5336ZM24.9999 32.3714C29.0714 32.3714 32.3718 29.0714 32.3718 24.9999C32.3718 20.9285 29.0714 17.6284 24.9999 17.6284C20.9289 17.6284 17.6284 20.9285 17.6284 24.9999C17.6284 29.0714 20.9289 32.3714 24.9999 32.3714ZM17.337 19.0597C18.2884 19.0597 19.0597 18.2883 19.0597 17.337C19.0597 16.3856 18.2884 15.6142 17.337 15.6142C16.3856 15.6142 15.6143 16.3856 15.6143 17.337C15.6146 18.2883 16.3856 19.0597 17.337 19.0597Z" fill="#CACACA"/>
<path d="M25 0C38.805 0 50 11.195 50 25C50 38.805 38.805 50 25 50C11.195 50 0 38.805 0 25C0 11.195 11.195 0 25 0ZM10.7311 30.9185C10.8006 32.4467 11.0435 33.49 11.3983 34.4032C12.1441 36.3316 13.6684 37.8559 15.5968 38.6017C16.5096 38.9565 17.5533 39.1991 19.0811 39.2689C20.612 39.3387 21.101 39.3555 24.9996 39.3555C28.8986 39.3555 29.3873 39.3387 30.9185 39.2689C32.4463 39.1991 33.49 38.9565 34.4028 38.6017C35.3611 38.2412 36.2286 37.6762 36.9457 36.9457C37.6759 36.2289 38.2408 35.3611 38.6013 34.4032C38.9561 33.4904 39.1991 32.4467 39.2685 30.9189C39.3391 29.3877 39.3555 28.8986 39.3555 25C39.3555 21.1014 39.3391 20.6123 39.2689 19.0815C39.1994 17.5533 38.9568 16.51 38.6021 15.5968C38.2416 14.6389 37.6762 13.7711 36.9457 13.0543C36.2289 12.3238 35.3611 11.7588 34.4032 11.3983C33.49 11.0435 32.4467 10.8009 30.9185 10.7311C29.3877 10.6613 28.8986 10.6445 25 10.6445C21.1014 10.6445 20.6123 10.6613 19.0815 10.7315C17.5533 10.8009 16.51 11.0435 15.5968 11.3979C14.6389 11.7584 13.7711 12.3238 13.0539 13.0543C12.3238 13.7714 11.7584 14.6389 11.3983 15.5968C11.0432 16.51 10.8006 17.5533 10.7307 19.0815C10.6609 20.6123 10.6445 21.1014 10.6445 25C10.6445 28.8986 10.6609 29.3877 10.7311 30.9185Z" fill="#CACACA"/>
</svg>
